<?xml version="1.0" encoding="UTF-8"?>
<svg xmlns="http://www.w3.org/2000/svg" xmlns:xlink="http://www.w3.org/1999/xlink" width="48pt" height="48pt" viewBox="0 0 48 48" version="1.1">
<g id="surface9546685">
<path style=" stroke:none;fill-rule:nonzero;fill:rgb(58.431373%,64.705882%,65.098039%);fill-opacity:1;" d="M 13.539062 33 L 11.5625 31.144531 L 4 31.164062 C 4 31.636719 4.003906 31.855469 4.347656 32.511719 L 9.285156 41.644531 C 9.824219 42.59375 10.390625 43 11.472656 43 C 13.15625 43 15.378906 41.632812 16 41.25 C 19.269531 39.242188 29.035156 33 29.035156 33 Z M 13.539062 33 "/>
<path style=" stroke:none;fill-rule:nonzero;fill:rgb(58.431373%,64.705882%,65.098039%);fill-opacity:1;" d="M 14.910156 41.640625 C 14.949219 41.699219 14.980469 41.761719 15.019531 41.820312 C 14.050781 42.351562 12.628906 43 11.46875 43 C 10.390625 43 9.828125 42.589844 9.28125 41.640625 L 4.351562 32.511719 C 4.011719 31.859375 4 31.636719 4 31.164062 L 9.59375 31.152344 C 9.601562 31.472656 9.699219 31.988281 9.96875 32.511719 Z M 14.910156 41.640625 "/>
<path style=" stroke:none;fill-rule:nonzero;fill:rgb(58.431373%,64.705882%,65.098039%);fill-opacity:1;" d="M 29.03125 33 C 29.03125 33 26.410156 34.679688 23.421875 36.570312 C 22.019531 37.460938 20.550781 38.398438 19.230469 39.230469 L 15.859375 33 Z M 29.03125 33 "/>
<path style=" stroke:none;fill-rule:nonzero;fill:rgb(58.431373%,64.705882%,65.098039%);fill-opacity:1;" d="M 29.03125 33 C 29.03125 33 26.410156 34.679688 23.421875 36.570312 L 21.488281 33 Z M 29.03125 33 "/>
<path style=" stroke:none;fill-rule:nonzero;fill:rgb(58.431373%,64.705882%,65.098039%);fill-opacity:1;" d="M 23.660156 7.589844 L 22.308594 11.839844 L 21.359375 14.828125 L 13.621094 33 L 6.910156 33 C 4.878906 33 4 32.21875 4 31.171875 C 4 30.75 4.21875 30.128906 4.511719 29.390625 L 13.289062 8.488281 L 14.300781 6.089844 C 14.300781 6.089844 14.621094 5 16 5 C 17.25 5 16.859375 5.070312 16.859375 5.070312 Z M 23.660156 7.589844 "/>
<path style=" stroke:none;fill-rule:nonzero;fill:rgb(58.431373%,64.705882%,65.098039%);fill-opacity:1;" d="M 22.308594 11.839844 L 21.359375 14.828125 L 20.851562 16.03125 L 13.621094 33 L 6.910156 33 C 4.878906 33 4 32.21875 4 31.171875 C 4 30.75 4.21875 30.128906 4.511719 29.390625 L 11.570312 12.589844 L 13.289062 8.488281 Z M 22.308594 11.839844 "/>
<path style=" stroke:none;fill-rule:nonzero;fill:rgb(58.431373%,64.705882%,65.098039%);fill-opacity:1;" d="M 20.851562 16.03125 L 19.101562 20.128906 L 13.621094 33 L 6.910156 33 C 4.878906 33 4 32.21875 4 31.171875 C 4 30.75 4.21875 30.128906 4.511719 29.390625 L 9.851562 16.691406 L 11.570312 12.589844 Z M 20.851562 16.03125 "/>
<path style=" stroke:none;fill-rule:nonzero;fill:rgb(58.431373%,64.705882%,65.098039%);fill-opacity:1;" d="M 19.101562 20.128906 L 17.359375 24.21875 L 13.621094 33 L 6.910156 33 C 4.878906 33 4 32.21875 4 31.171875 C 4 30.75 4.21875 30.128906 4.511719 29.390625 L 8.121094 20.800781 L 9.851562 16.691406 Z M 19.101562 20.128906 "/>
<path style=" stroke:none;fill-rule:nonzero;fill:rgb(58.431373%,64.705882%,65.098039%);fill-opacity:1;" d="M 17.359375 24.21875 L 15.609375 28.320312 L 13.621094 33 L 6.910156 33 C 4.878906 33 4 32.21875 4 31.171875 C 4 30.75 4.21875 30.128906 4.511719 29.390625 L 6.398438 24.898438 L 8.121094 20.800781 Z M 17.359375 24.21875 "/>
<path style=" stroke:none;fill-rule:nonzero;fill:rgb(58.431373%,64.705882%,65.098039%);fill-opacity:1;" d="M 15.609375 28.320312 L 13.851562 32.449219 L 13.621094 33 L 6.910156 33 C 4.878906 33 4 32.21875 4 31.171875 C 4 30.75 4.21875 30.128906 4.511719 29.390625 L 4.671875 29.019531 L 6.398438 24.898438 Z M 15.609375 28.320312 "/>
<path style=" stroke:none;fill-rule:nonzero;fill:rgb(58.431373%,64.705882%,65.098039%);fill-opacity:1;" d="M 13.851562 32.449219 L 13.621094 33 L 6.910156 33 C 4.878906 33 4 32.21875 4 31.171875 C 4 30.75 4.21875 30.128906 4.511719 29.390625 L 4.671875 29.019531 Z M 13.851562 32.449219 "/>
<path style=" stroke:none;fill-rule:nonzero;fill:rgb(58.431373%,64.705882%,65.098039%);fill-opacity:1;" d="M 44 43 L 33.261719 43 L 31.570312 39 L 29.871094 35 L 29.308594 33.671875 L 28.738281 32.328125 L 28.179688 31 L 27.328125 29 L 26.488281 27 L 26.480469 27 L 24.789062 23 L 24.371094 22 L 23.101562 19 L 21.410156 15 L 21.398438 15 L 18.019531 7 L 17.820312 6.519531 C 17.550781 5.898438 17.101562 5 16 5 L 26.710938 5 C 27.699219 5 28.171875 5.578125 28.378906 6.109375 L 28.761719 7 L 30.449219 11 L 30.5 11.101562 L 32.140625 15 L 32.171875 15.058594 L 33.828125 19 L 33.859375 19.058594 L 35.53125 23 L 35.539062 23.019531 L 37.21875 27 L 37.238281 27.039062 L 38.921875 31 L 40.609375 35 L 40.621094 35 L 41.910156 38.058594 L 42.308594 39 Z M 44 43 "/>
<path style=" stroke:none;fill-rule:nonzero;fill:rgb(58.431373%,64.705882%,65.098039%);fill-opacity:1;" d="M 44 43 L 33.261719 43 L 31.570312 39 L 29.871094 35 L 29.308594 33.671875 L 28.738281 32.328125 L 28.179688 31 L 27.328125 29 L 26.488281 27 L 26.480469 27 L 24.789062 23 L 24.371094 22 L 23.101562 19 L 21.410156 15 L 21.398438 15 L 18.019531 7 L 28.761719 7 L 30.449219 11 L 30.5 11.101562 L 32.140625 15 L 32.171875 15.058594 L 33.828125 19 L 33.859375 19.058594 L 35.53125 23 L 35.539062 23.019531 L 37.21875 27 L 37.238281 27.039062 L 38.921875 31 L 40.609375 35 L 40.621094 35 L 41.910156 38.058594 L 42.308594 39 Z M 44 43 "/>
<path style=" stroke:none;fill-rule:nonzero;fill:rgb(58.431373%,64.705882%,65.098039%);fill-opacity:1;" d="M 44 43 L 33.261719 43 L 31.570312 39 L 29.871094 35 L 29.308594 33.671875 L 28.738281 32.328125 L 28.179688 31 L 27.328125 29 L 26.480469 27 L 24.789062 23 L 24.371094 22 L 23.101562 19 L 23.089844 19 L 19.710938 11 L 30.449219 11 L 32.140625 15 L 32.171875 15.058594 L 33.828125 19 L 33.859375 19.058594 L 35.53125 23 L 35.539062 23.019531 L 37.21875 27 L 37.238281 27.039062 L 38.921875 31 L 40.609375 35 L 40.621094 35 L 41.910156 38.058594 L 42.308594 39 Z M 44 43 "/>
<path style=" stroke:none;fill-rule:nonzero;fill:rgb(58.431373%,64.705882%,65.098039%);fill-opacity:1;" d="M 44 43 L 33.261719 43 L 31.570312 39 L 29.871094 35 L 29.308594 33.671875 L 28.738281 32.328125 L 28.179688 31 L 27.328125 29 L 26.480469 27 L 24.789062 23 L 24.371094 22 L 23.089844 19 L 21.398438 15 L 32.140625 15 L 32.171875 15.058594 L 33.828125 19 L 33.859375 19.058594 L 35.53125 23 L 35.539062 23.019531 L 37.21875 27 L 37.238281 27.039062 L 38.921875 31 L 40.609375 35 L 40.621094 35 L 41.910156 38.058594 L 42.308594 39 Z M 44 43 "/>
<path style=" stroke:none;fill-rule:nonzero;fill:rgb(58.431373%,64.705882%,65.098039%);fill-opacity:1;" d="M 44 43 L 33.261719 43 L 31.570312 39 L 29.871094 35 L 29.308594 33.671875 L 28.738281 32.328125 L 28.179688 31 L 27.328125 29 L 26.488281 27 L 26.480469 27 L 24.789062 23 L 24.371094 22 L 23.089844 19 L 33.828125 19 L 33.859375 19.058594 L 35.53125 23 L 35.539062 23.019531 L 37.21875 27 L 37.238281 27.039062 L 38.921875 31 L 40.609375 35 L 40.621094 35 L 41.910156 38.058594 L 42.308594 39 Z M 44 43 "/>
<path style=" stroke:none;fill-rule:nonzero;fill:rgb(58.431373%,64.705882%,65.098039%);fill-opacity:1;" d="M 44 43 L 33.261719 43 L 31.570312 39 L 29.871094 35 L 29.308594 33.671875 L 28.738281 32.328125 L 28.179688 31 L 27.328125 29 L 26.480469 27 L 24.789062 23 L 35.53125 23 L 35.539062 23.019531 L 37.21875 27 L 37.238281 27.039062 L 38.921875 31 L 40.609375 35 L 40.621094 35 L 41.910156 38.058594 L 42.308594 39 Z M 44 43 "/>
<path style=" stroke:none;fill-rule:nonzero;fill:rgb(58.431373%,64.705882%,65.098039%);fill-opacity:1;" d="M 44 43 L 33.261719 43 L 31.570312 39 L 29.871094 35 L 29.308594 33.671875 L 28.738281 32.328125 L 28.179688 31 L 27.328125 29 L 26.480469 27 L 37.21875 27 L 37.238281 27.039062 L 38.921875 31 L 40.609375 35 L 40.621094 35 L 41.910156 38.058594 L 42.308594 39 Z M 44 43 "/>
<path style=" stroke:none;fill-rule:nonzero;fill:rgb(58.431373%,64.705882%,65.098039%);fill-opacity:1;" d="M 44 43 L 33.261719 43 L 31.570312 39 L 29.871094 35 L 29.308594 33.671875 L 28.738281 32.328125 L 28.179688 31 L 38.921875 31 L 40.609375 35 L 40.621094 35 L 41.910156 38.058594 L 42.308594 39 Z M 44 43 "/>
<path style=" stroke:none;fill-rule:nonzero;fill:rgb(58.431373%,64.705882%,65.098039%);fill-opacity:1;" d="M 44 43 L 33.261719 43 L 31.570312 39 L 29.871094 35 L 40.621094 35 L 41.910156 38.058594 L 42.308594 39 Z M 44 43 "/>
<path style=" stroke:none;fill-rule:nonzero;fill:rgb(58.431373%,64.705882%,65.098039%);fill-opacity:1;" d="M 42.308594 39 L 44 43 L 33.261719 43 L 31.570312 39 Z M 42.308594 39 "/>
</g>
</svg>
