<svg id="Capa_1" enable-background="new 0 0 512 512" height="512" viewBox="0 0 512 512" width="512" xmlns="http://www.w3.org/2000/svg"><g><path d="m219.6 369.5h72.8v67.89h-72.8z" fill="#dfe7f4"/><path d="m256 369.5h36.4v67.89h-36.4z" fill="#c7cfe1"/><g><path d="m499.64 45.52v315.96c0 7.88-6.4 14.28-14.28 14.28h-458.72c-7.88 0-14.28-6.4-14.28-14.28v-315.96c0-7.88 6.4-14.28 14.28-14.28h458.72c7.88 0 14.28 6.4 14.28 14.28z" fill="#f0f7ff"/></g><path d="m499.64 45.52v315.96c0 7.88-6.4 14.28-14.28 14.28h-229.36v-344.52h229.36c7.88 0 14.28 6.4 14.28 14.28z" fill="#dfe7f4"/><path d="m198.36 224.83v11.27c0 6.56-5.32 11.88-11.88 11.88h-101.96c-6.56 0-11.88-5.32-11.88-11.88v-11.27c0-29.51 23.92-53.43 53.43-53.43h18.86c29.51 0 53.43 23.92 53.43 53.43z" fill="#6aa9ff"/><path d="m172.46 134.44c0 20.41-16.55 36.96-36.96 36.96s-36.96-16.55-36.96-36.96 16.55-36.95 36.96-36.95 36.96 16.54 36.96 36.95z" fill="#ffbfab"/><path d="m198.36 224.83v11.27c0 6.56-5.32 11.88-11.88 11.88h-50.98v-76.58h9.43c29.51 0 53.43 23.92 53.43 53.43z" fill="#4987ea"/><path d="m172.46 134.44c0 20.41-16.55 36.96-36.96 36.96v-73.91c20.41 0 36.96 16.54 36.96 36.95z" fill="#f89580"/><path d="m497 22.5h-482c-8.28 0-15 6.72-15 15v332c0 8.28 6.72 15 15 15h482c8.28 0 15-6.72 15-15v-332c0-8.28-6.72-15-15-15zm-15 279.98h-452v-249.98h452z" fill="#334973"/><path d="m512 37.5v332c0 8.28-6.72 15-15 15h-241v-82.02h226v-249.98h-226v-30h241c8.28 0 15 6.72 15 15z" fill="#1f3259"/><g><path d="m452 171.1c0 8.28-6.72 15-15 15h-135.12c-8.29 0-15-6.72-15-15 0-8.29 6.71-15 15-15h135.12c8.28 0 15 6.71 15 15z" fill="#7ed8f6"/></g><g><path d="m452 111.1c0 8.28-6.72 15-15 15h-135.12c-8.29 0-15-6.72-15-15 0-8.29 6.71-15 15-15h135.12c8.28 0 15 6.71 15 15z" fill="#7ed8f6"/></g><g><path d="m452 231.1c0 8.28-6.72 15-15 15h-135.12c-8.29 0-15-6.72-15-15 0-8.29 6.71-15 15-15h135.12c8.28 0 15 6.71 15 15z" fill="#7ed8f6"/></g><g fill="#6aa9ff"><path d="m452 231.1c0 8.28-6.72 15-15 15h-67.56v-30h67.56c8.28 0 15 6.71 15 15z"/><path d="m452 171.1c0 8.28-6.72 15-15 15h-67.56v-30h67.56c8.28 0 15 6.71 15 15z"/><path d="m437 126.1h-67.56v-30h67.56c8.28 0 15 6.71 15 15 0 8.28-6.72 15-15 15z"/></g><path d="m371.67 479.88c0 5.31-4.31 9.62-9.62 9.62h-212.1c-5.285 0-9.62-4.292-9.62-9.62 0-27.83 22.55-50.38 50.37-50.38h130.6c13.91 0 26.5 5.64 35.62 14.75 9.11 9.12 14.75 21.71 14.75 35.63z" fill="#334973"/><path d="m356.92 444.25c9.11 9.12 14.75 21.71 14.75 35.63 0 5.31-4.31 9.62-9.62 9.62h-106.05v-60h65.3c13.91 0 26.5 5.64 35.62 14.75z" fill="#1f3259"/></g></svg>