<?xml version="1.0" standalone="no"?>
<!DOCTYPE svg PUBLIC "-//W3C//DTD SVG 20010904//EN"
 "http://www.w3.org/TR/2001/REC-SVG-20010904/DTD/svg10.dtd">
<svg version="1.0" xmlns="http://www.w3.org/2000/svg"
 width="300.000000pt" height="150.000000pt" viewBox="0 0 300.000000 150.000000"
 preserveAspectRatio="xMidYMid meet">
<metadata>
Created by potrace 1.16, written by Peter Selinger 2001-2019
</metadata>
<g transform="translate(0.000000,150.000000) scale(0.100000,-0.100000)"
fill="#000000" stroke="none">
<path d="M0 750 l0 -750 1500 0 1500 0 0 750 0 750 -1500 0 -1500 0 0 -750z
m586 258 c-14 -24 -30 -64 -36 -89 -11 -44 -13 -46 -68 -63 -31 -10 -72 -26
-90 -37 l-33 -19 6 22 c27 87 85 156 167 197 34 17 65 31 70 31 5 0 -2 -19
-16 -42z m132 20 c24 -26 61 -105 62 -130 0 -16 -12 -18 -104 -18 l-105 0 9
28 c17 58 32 88 58 115 31 33 52 34 80 5z m107 -6 c77 -38 145 -118 170 -201
l7 -24 -33 20 c-19 12 -59 29 -90 38 -56 18 -56 18 -74 74 -9 31 -26 71 -38
90 l-20 33 24 -7 c13 -4 38 -14 54 -23z m-41 -188 c12 -12 16 -36 16 -100 0
-123 -1 -124 -118 -124 -63 0 -102 4 -110 12 -8 8 -12 47 -12 110 0 117 0 117
122 118 66 0 90 -4 102 -16z m148 -35 c36 -18 68 -51 68 -69 0 -27 -52 -68
-113 -89 l-57 -20 0 109 0 109 39 -14 c22 -7 50 -19 63 -26z m-402 -73 l0
-105 -59 20 c-67 23 -111 58 -111 89 0 28 42 65 93 84 78 27 77 29 77 -88z
m-33 -127 c38 -10 42 -14 53 -57 6 -26 22 -66 35 -90 l24 -43 -22 7 c-46 13
-119 59 -148 91 -28 33 -79 123 -79 141 0 5 21 -2 48 -15 26 -13 66 -29 89
-34z m481 -1 c-14 -30 -39 -70 -56 -89 -30 -34 -102 -79 -151 -94 l-24 -7 20
33 c12 19 29 59 38 90 18 57 18 57 76 74 32 10 70 26 85 36 16 10 30 16 32 14
2 -2 -7 -28 -20 -57z m-203 -57 c-28 -79 -65 -131 -95 -131 -33 0 -76 60 -100
143 l-9 27 109 0 109 0 -14 -39z"/>
</g>
</svg>
