<?xml version="1.0" standalone="no"?>
<!DOCTYPE svg PUBLIC "-//W3C//DTD SVG 20010904//EN"
 "http://www.w3.org/TR/2001/REC-SVG-20010904/DTD/svg10.dtd">
<svg version="1.0" xmlns="http://www.w3.org/2000/svg"
 width="860.000000pt" height="1144.000000pt" viewBox="0 0 860.000000 1144.000000"
 preserveAspectRatio="xMidYMid meet">

<g transform="translate(0.000000,1144.000000) scale(0.100000,-0.100000)"
fill="#000000" stroke="none">
<path d="M3777 10102 c-378 -504 -705 -939 -726 -967 -21 -27 -153 -203 -293
-390 -139 -187 -295 -394 -344 -460 -50 -66 -199 -264 -331 -440 -286 -383
-1534 -2046 -1545 -2060 -207 -264 -228 -308 -228 -471 0 -103 2 -115 30 -171
42 -84 136 -177 219 -217 l66 -31 1438 -3 c1177 -2 1437 -5 1437 -15 0 -8 -28
-55 -62 -106 -35 -51 -89 -143 -121 -205 -32 -61 -69 -127 -82 -146 -14 -19
-33 -60 -44 -90 -10 -30 -26 -68 -35 -85 -9 -16 -16 -35 -16 -41 0 -7 -11 -36
-25 -65 -35 -79 -100 -313 -131 -479 -25 -132 -27 -171 -31 -447 -3 -214 -2
-303 6 -303 7 0 11 -39 11 -115 0 -70 4 -115 10 -115 6 0 10 -26 10 -59 0 -43
4 -60 15 -65 11 -4 15 -22 15 -71 0 -37 4 -65 10 -65 6 0 10 -15 10 -34 0 -21
6 -36 15 -40 10 -3 15 -19 15 -45 0 -22 5 -43 10 -46 6 -3 10 -19 10 -35 0
-16 5 -32 10 -35 6 -3 10 -22 10 -41 0 -24 5 -34 15 -34 10 0 15 -11 15 -35 0
-19 5 -35 10 -35 6 0 10 -9 10 -20 0 -11 5 -20 10 -20 6 0 10 -18 10 -40 0
-29 4 -40 15 -40 8 0 15 -9 15 -20 0 -11 5 -20 10 -20 6 0 10 -9 10 -19 0 -11
4 -22 9 -26 13 -7 41 -64 41 -82 0 -7 5 -13 10 -13 6 0 10 -11 10 -25 0 -14 5
-25 10 -25 6 0 10 -7 10 -16 0 -9 11 -25 25 -36 14 -11 25 -26 25 -35 0 -8 11
-24 25 -35 14 -11 25 -30 25 -43 0 -14 7 -25 20 -28 15 -4 20 -14 20 -36 0
-21 5 -31 15 -31 8 0 15 -7 15 -16 0 -9 20 -34 45 -56 30 -26 45 -48 45 -64 0
-13 6 -24 13 -24 19 0 87 -73 87 -94 0 -20 37 -55 59 -56 8 0 92 -77 188 -172
l173 -171 25 33 c14 19 25 37 25 40 0 4 16 24 35 46 19 21 35 44 35 50 0 6 7
18 17 25 19 16 85 102 130 170 18 27 37 49 43 49 5 0 10 6 10 13 0 12 43 71
112 151 18 21 38 52 45 67 7 16 17 29 22 29 6 0 22 20 36 44 14 24 33 50 42
58 9 7 27 29 40 48 13 19 44 62 68 95 25 33 55 76 69 95 13 19 33 44 45 54 11
11 21 24 21 31 0 6 16 26 35 45 19 19 35 39 35 45 0 6 16 29 35 51 19 21 35
42 35 46 0 4 14 23 31 42 37 42 67 84 110 149 17 26 35 47 40 47 4 0 16 15 25
32 9 18 30 49 46 68 88 106 108 132 108 143 0 7 16 28 35 47 19 19 35 38 35
43 0 5 15 27 33 47 17 21 46 58 64 82 18 23 61 81 95 127 35 46 70 93 78 105
8 11 29 38 47 59 18 20 33 41 33 46 0 6 17 30 38 55 20 25 53 66 72 92 19 25
50 64 68 86 17 22 32 44 32 48 0 5 17 29 38 54 42 51 117 153 147 201 20 31
47 67 113 144 17 21 32 42 32 46 0 4 15 25 33 45 17 21 50 63 72 95 22 31 53
72 68 90 31 38 57 72 112 152 21 29 40 53 44 53 4 0 13 12 20 27 7 15 26 43
42 63 82 97 108 131 114 150 3 11 10 20 15 20 5 0 19 17 31 38 12 20 36 54 53
74 74 90 91 113 118 154 15 24 32 44 38 44 5 0 10 6 10 14 0 8 17 35 38 60 20
25 53 66 72 91 19 25 47 60 61 78 14 17 38 50 52 72 15 22 45 63 67 90 22 28
52 68 67 90 14 22 32 44 39 48 8 4 21 22 30 40 9 18 31 49 48 69 17 20 45 55
61 78 17 22 47 61 68 86 20 25 37 49 37 54 0 5 14 25 31 44 37 42 67 84 110
149 17 26 35 47 40 47 4 0 16 15 25 33 9 17 31 49 48 69 67 80 90 111 119 156
48 74 93 146 100 159 4 6 12 58 17 115 6 56 12 118 15 136 5 24 2 32 -10 32
-11 0 -15 10 -15 35 0 19 -4 35 -9 35 -5 0 -11 12 -13 28 -2 16 -12 31 -25 37
-16 7 -23 18 -23 37 0 22 -8 32 -39 48 -22 11 -43 24 -46 30 -10 17 -87 53
-135 63 -28 7 -579 13 -1468 16 l-1424 6 47 70 c229 341 370 699 457 1160 20
109 22 149 22 450 0 294 -2 344 -22 460 -68 401 -169 703 -331 988 -11 20 -31
54 -42 75 -42 74 -163 249 -237 342 -126 158 -457 481 -510 497 -4 1 -316
-410 -695 -915z m634 -4035 c-10 -9 -11 -8 -5 6 3 10 9 15 12 12 3 -3 0 -11
-7 -18z m-70 -90 c-10 -9 -11 -8 -5 6 3 10 9 15 12 12 3 -3 0 -11 -7 -18z
m-65 -85 c-17 -16 -18 -16 -5 5 7 12 15 20 18 17 3 -2 -3 -12 -13 -22z m-66
-93 c-7 -11 -14 -18 -17 -15 -3 3 0 12 7 21 18 21 23 19 10 -6z m-79 -102
c-13 -12 -20 -15 -16 -7 14 26 28 41 33 35 3 -3 -5 -16 -17 -28z m-61 -86 c-6
-12 -15 -21 -21 -21 -5 0 -2 11 7 25 20 30 31 26 14 -4z m-81 -107 c-31 -33
-36 -23 -8 16 13 17 25 26 27 20 2 -6 -6 -22 -19 -36z m-74 -93 l-27 -26 23
37 c13 21 26 32 28 27 2 -6 -9 -23 -24 -38z m-50 -71 c-8 -16 -25 -35 -37 -41
-18 -10 -16 -4 11 30 39 48 47 52 26 11z m-69 -88 c-14 -28 -56 -71 -56 -57 0
8 59 85 66 85 3 0 -2 -12 -10 -28z m-65 -89 c-5 -10 -23 -31 -40 -47 -17 -17
-31 -36 -31 -43 0 -7 -16 -30 -35 -52 -19 -21 -35 -43 -35 -48 0 -5 -16 -25
-37 -44 -47 -45 -37 -27 66 109 47 63 90 120 96 128 14 20 28 17 16 -3z"/>
</g>
</svg>
